<svg xmlns="http://www.w3.org/2000/svg" width="800" height="600" viewBox="0 0 800 600"><defs><pattern id="grid" width="40" height="40" patternUnits="userSpaceOnUse"><path d="M 40 0 L 0 0 0 40" fill="none" stroke="#c9ad6a" stroke-width="0.5" opacity="0.3"/></pattern><filter id="shadow" x="-20%" y="-20%" width="140%" height="140%"><feDropShadow dx="2" dy="2" stdDeviation="2" flood-color="#000" flood-opacity="0.3"/></filter></defs><rect width="800" height="600" fill="#2c1e14"/><rect width="800" height="600" fill="url(#grid)"/><line x1="400" y1="320" x2="240" y2="320" stroke="#8b7355" stroke-width="22"/><line x1="400" y1="320" x2="240" y2="320" stroke="#d4c5a9" stroke-width="18"/><circle cx="400" cy="320" r="5" fill="#c9ad6a"/><circle cx="240" cy="320" r="5" fill="#c9ad6a"/><line x1="160" y1="320" x2="80" y2="240" stroke="#8b7355" stroke-width="22"/><line x1="160" y1="320" x2="80" y2="240" stroke="#d4c5a9" stroke-width="18"/><circle cx="160" cy="320" r="5" fill="#c9ad6a"/><circle cx="80" cy="240" r="5" fill="#c9ad6a"/><line x1="520" y1="320" x2="600" y2="360" stroke="#8b7355" stroke-width="22"/><line x1="520" y1="320" x2="600" y2="360" stroke="#d4c5a9" stroke-width="18"/><circle cx="520" cy="320" r="5" fill="#c9ad6a"/><circle cx="600" cy="360" r="5" fill="#c9ad6a"/><line x1="400" y1="320" x2="240" y2="320" stroke="#8b7355" stroke-width="22"/><line x1="400" y1="320" x2="240" y2="320" stroke="#d4c5a9" stroke-width="18"/><circle cx="400" cy="320" r="5" fill="#c9ad6a"/><circle cx="240" cy="320" r="5" fill="#c9ad6a"/><line x1="240" y1="360" x2="600" y2="440" stroke="#8b7355" stroke-width="22"/><line x1="240" y1="360" x2="600" y2="440" stroke="#d4c5a9" stroke-width="18"/><circle cx="240" cy="360" r="5" fill="#c9ad6a"/><circle cx="600" cy="440" r="5" fill="#c9ad6a"/><line x1="600" y1="360" x2="160" y2="240" stroke="#8b7355" stroke-width="22"/><line x1="600" y1="360" x2="160" y2="240" stroke="#d4c5a9" stroke-width="18"/><circle cx="600" cy="360" r="5" fill="#c9ad6a"/><circle cx="160" cy="240" r="5" fill="#c9ad6a"/><rect x="403" y="163" width="120" height="160" fill="#1a1a1a" opacity="0.3" rx="3"/><rect x="400" y="160" width="120" height="160" fill="#d4c5a9" stroke="#8b7355" stroke-width="2" filter="url(#shadow)"/><rect x="404" y="164" width="112" height="152" fill="#c9ad6a" stroke="#a08c5a" stroke-width="1"/><rect x="456" y="164" width="8" height="12" fill="#5a3d2b"/><rect x="406" y="236" width="8" height="8" fill="#5a3d2b"/><rect x="506" y="236" width="8" height="8" fill="#5a3d2b"/><rect x="123" y="323" width="120" height="120" fill="#1a1a1a" opacity="0.3" rx="3"/><rect x="120" y="320" width="120" height="120" fill="#d4c5a9" stroke="#8b7355" stroke-width="2" filter="url(#shadow)"/><rect x="124" y="324" width="112" height="112" fill="#c9ad6a" stroke="#a08c5a" stroke-width="1"/><rect x="176" y="324" width="8" height="12" fill="#5a3d2b"/><rect x="126" y="376" width="8" height="8" fill="#5a3d2b"/><rect x="226" y="376" width="8" height="8" fill="#5a3d2b"/><rect x="603" y="363" width="80" height="160" fill="#1a1a1a" opacity="0.3" rx="3"/><rect x="600" y="360" width="80" height="160" fill="#d4c5a9" stroke="#8b7355" stroke-width="2" filter="url(#shadow)"/><rect x="604" y="364" width="72" height="152" fill="#c9ad6a" stroke="#a08c5a" stroke-width="1"/><rect x="636" y="364" width="8" height="12" fill="#5a3d2b"/><rect x="606" y="436" width="8" height="8" fill="#5a3d2b"/><rect x="666" y="436" width="8" height="8" fill="#5a3d2b"/><rect x="43" y="163" width="120" height="80" fill="#1a1a1a" opacity="0.3" rx="3"/><rect x="40" y="160" width="120" height="80" fill="#d4c5a9" stroke="#8b7355" stroke-width="2" filter="url(#shadow)"/><rect x="44" y="164" width="112" height="72" fill="#c9ad6a" stroke="#a08c5a" stroke-width="1"/><rect x="96" y="164" width="8" height="12" fill="#5a3d2b"/><rect x="46" y="196" width="8" height="8" fill="#5a3d2b"/><rect x="146" y="196" width="8" height="8" fill="#5a3d2b"/><rect x="400" y="230" width="120" height="20" fill="#1a1a1a" opacity="0.8" rx="4"/><text x="460" y="240" font-family="Arial, Helvetica, sans-serif" font-size="12" fill="#f5f0e6" text-anchor="middle" dominant-baseline="central" font-weight="bold">Plaza Principal</text><rect x="132" y="370" width="96" height="20" fill="#1a1a1a" opacity="0.8" rx="4"/><text x="180" y="380" font-family="Arial, Helvetica, sans-serif" font-size="12" fill="#f5f0e6" text-anchor="middle" dominant-baseline="central" font-weight="bold">Muelle Norte</text><rect x="568" y="430" width="144" height="20" fill="#1a1a1a" opacity="0.8" rx="4"/><text x="640" y="440" font-family="Arial, Helvetica, sans-serif" font-size="12" fill="#f5f0e6" text-anchor="middle" dominant-baseline="central" font-weight="bold">Acceso a Almacenes</text><rect x="28" y="190" width="144" height="20" fill="#1a1a1a" opacity="0.8" rx="4"/><text x="100" y="200" font-family="Arial, Helvetica, sans-serif" font-size="12" fill="#f5f0e6" text-anchor="middle" dominant-baseline="central" font-weight="bold">Mercado de Pescado</text><text x="400" y="30" font-family="Arial, Helvetica, sans-serif" font-size="22" fill="#c9ad6a" text-anchor="middle" font-weight="bold">Plaza Principal de los Muelles de la Sombra</text><text x="790" y="590" font-family="Arial, sans-serif" font-size="11" fill="#c9ad6a" text-anchor="end" opacity="0.7">4 zonas</text></svg>